# xmcd
#
# Track frame offsets:
#	150
#	17778
#	33862
#	51985
#	67732
#	83203
#	103000
#	120100
#	137856
#	156155
#	173752
#	187128
#	205075
#	219386
#	232166
#	249724
#	263905
#	279571
#	304959
#
# Disc length: 4217 seconds
#
# Revision: 1
# Processed by: cddbd v1.5.2PL0 Copyright (c) Steve Scherf et al.
# Submitted via: audiograbber 1.83.01
#
DISCID=10107713
DTITLE=Various Artist - Vollgas im Schnee 2003
DYEAR=2003
DGENRE=Techno
TTITLE0=Sunfactor feat. Eileen - Let u down
TTITLE1=S-Force pres. Hyper - Ride on a Meteorite
TTITLE2=Ravers on Dope - Get High
TTITLE3=DJ BBS meets Valium Express - The Loco-Motion
TTITLE4=The Sign feat. Natasha - Words
TTITLE5=Envoy - Ella Ella La
TTITLE6=Clubzone feat. Alisha - Rainy Day 2002
TTITLE7=Praga - Pump up the Bass
TTITLE8=DJ Andy B. - Hey Guy (Don´t be shy)
TTITLE9=Banditozz - Melodia
TTITLE10=Ready 4 Use - House of Pain
TTITLE11=DB Junkies - Electronic Control
TTITLE12=2 Sexy feat. Lou Walter - Oh Juliette
TTITLE13=X-Trim - All my Dreams
TTITLE14=Terence - Earthsong
TTITLE15=2 Together - Loveline 2002
TTITLE16=Mastervoice Lipm - N Na Hey Hey
TTITLE17=Fabio Ferrara - Volare
TTITLE18=Best of 2002 - Daten-CD
EXTD=
EXTT0=
EXTT1=
EXTT2=
EXTT3=
EXTT4=
EXTT5=
EXTT6=
EXTT7=
EXTT8=
EXTT9=
EXTT10=
EXTT11=
EXTT12=
EXTT13=
EXTT14=
EXTT15=
EXTT16=
EXTT17=
EXTT18=
PLAYORDER=
